<svg viewBox="0 0 512 512" xmlns="http://www.w3.org/2000/svg" role="img" aria-label="LAB PIGATTO">
  <path fill="#16A7E0" d="M256 70
    C 220 40 170 40 132 64
    C 92 90 66 140 70 196
    C 74 250 96 300 116 350
    C 130 386 132 452 170 452
    C 206 452 214 386 230 346
    C 240 322 250 316 256 316
    C 262 316 272 322 282 346
    C 298 386 306 452 342 452
    C 380 452 382 386 396 350
    C 416 300 438 250 442 196
    C 446 140 420 90 380 64
    C 342 40 292 40 256 70 Z"/>
  <path fill="#FFFFFF" d="M256 250
    C 244 282 231 298 231 334
    C 231 370 242 398 256 398
    C 270 398 281 370 281 334
    C 281 308 269 301 262 289
    C 260 305 265 319 256 329
    C 247 319 250 301 250 287
    C 250 273 254 260 256 250 Z"/>
</svg>
